<?xml version="1.0" encoding="UTF-8" standalone="no"?>
<svg
   xmlns:dc="http://purl.org/dc/elements/1.1/"
   xmlns:cc="http://creativecommons.org/ns#"
   xmlns:rdf="http://www.w3.org/1999/02/22-rdf-syntax-ns#"
   xmlns:svg="http://www.w3.org/2000/svg"
   xmlns="http://www.w3.org/2000/svg"
   xmlns:sodipodi="http://sodipodi.sourceforge.net/DTD/sodipodi-0.dtd"
   xmlns:inkscape="http://www.inkscape.org/namespaces/inkscape"
   version="1.0"
   width="125.94167mm"
   height="202.67194mm"
   id="svg2"
   inkscape:version="0.91 r13725"
   viewBox="0 0 125.94167 202.67193"
   sodipodi:docname="Rahmen-rot.svg">
  <metadata
     id="metadata43">
    <rdf:RDF>
      <cc:Work
         rdf:about="">
        <dc:format>image/svg+xml</dc:format>
        <dc:type
           rdf:resource="http://purl.org/dc/dcmitype/StillImage" />
        <dc:title></dc:title>
      </cc:Work>
    </rdf:RDF>
  </metadata>
  <sodipodi:namedview
     pagecolor="#ffffff"
     bordercolor="#666666"
     borderopacity="1"
     objecttolerance="10"
     gridtolerance="10"
     guidetolerance="10"
     inkscape:pageopacity="0"
     inkscape:pageshadow="2"
     inkscape:window-width="1680"
     inkscape:window-height="987"
     id="namedview41"
     inkscape:document-units="mm"
     showgrid="false"
     inkscape:zoom="0.25"
     inkscape:cx="-1581.0776"
     inkscape:cy="-408.97597"
     inkscape:window-x="-8"
     inkscape:window-y="-8"
     inkscape:window-maximized="1"
     inkscape:current-layer="svg2"
     showguides="false"
     inkscape:snap-others="true"
     inkscape:snap-object-midpoints="true"
     inkscape:snap-center="true"
     fit-margin-top="0"
     fit-margin-left="0"
     fit-margin-right="0"
     fit-margin-bottom="0" />
  <defs
     id="defs4" />
  <path
     style="fill:#e53012;fill-opacity:1;fill-rule:evenodd;stroke:none"
     d="M 5.1505557,-8.6127393e-6 C 5.1505557,2.8491596 2.8491689,5.1499962 0,5.1499959 l 0,0.800916 0,190.8996481 0.00220486,0 0,0.67082 c 2.84916874,0 5.14835084,2.30139 5.14835084,5.15056 l 0.8003647,0 c 0,-1.8e-4 0,-2.8e-4 0,-5.7e-4 l 114.0784096,0 c 0,1.9e-4 0,2.9e-4 0,5.7e-4 l 0.79872,0 c 0,-2.82811 2.28551,-5.11142 5.11362,-5.11142 l 0,-0.69343 0,-190.9161781 0,-0.800916 c -2.84917,0 -5.15056,-2.3008357 -5.15056,-5.1500045127393 l -0.79871,0 c 0,0 0,5.503333693e-4 0,5.503333693e-4 l -114.0414796,0 c 0,0 0,-5.503333693e-4 0,-5.503333693e-4 l -0.8003647,0 z M 5.8969011,0.79429273 l 114.1495189,0 c 0.35463,2.64724377 2.45441,4.74748777 5.1015,5.10204897 l 0,190.9178283 c -2.6262,0.35385 -4.70911,2.43687 -5.06346,5.06292 l -114.1875589,0 c -0.3548323,-2.64765 -2.4553844,-4.74816 -5.10315108,-5.10205 l 0,-190.8786983 C 3.4409945,5.5417003 5.5420405,3.4414685 5.8969011,0.79429273 Z"
     id="path9"
     inkscape:connector-curvature="0" />
  <path
     style="fill:#e53012;fill-opacity:1;fill-rule:evenodd;stroke:none"
     d="m 8.4369006,3.1753603 c 0,2.9072889 -2.3546124,5.2596959 -5.2619015,5.2596959 l 0,0.15875 0,0.112999 0,184.7563448 0,0.24198 c 2.9072902,0 5.2619032,2.35461 5.2619015,5.2619 l 0.2695442,0 108.7685652,0 0.0314,0 c 0,-2.90729 2.35241,-5.2619 5.2597,-5.2619 l 0,-0.14497 5.6e-4,0 0,-185.0027338 -5.6e-4,0 0,-0.120165 c -1.39542,0 -2.7318,-0.554492 -3.7185,-1.5411976 -0.98671,-0.9867057 -1.5412,-2.3252894 -1.5412,-3.7207033 l -0.0314,0 -108.7685652,0 -0.2397785,0 -0.029766,0 z m 0.2629298,0.2645833 108.5486296,0 c 0.0659,1.3702064 0.63336,2.6712108 1.60789,3.645738 0.9746,0.9745946 2.27544,1.5420546 3.64574,1.6078946 l 0,184.7486238 c -2.8431,0.13391 -5.1263,2.41714 -5.26024,5.26025 l -108.5420196,0 C 8.5658996,195.85952 6.2824399,193.57639 3.4395825,193.4422 l 0,-184.7420088 C 6.2822692,8.5660102 8.5656495,6.2826301 8.6998304,3.4399436 Z"
     id="path27"
     inkscape:connector-curvature="0" />
</svg>
